<?xml version="1.0" encoding="UTF-8"?>
<svg width="75px" height="31px" viewBox="0 0 75 31" version="1.1" xmlns="http://www.w3.org/2000/svg" xmlns:xlink="http://www.w3.org/1999/xlink">
    <title>logo-txt-vector-base</title>
    <g id="Page-1" stroke="none" stroke-width="1" fill="none" fill-rule="evenodd">
        <g id="logo-txt-vector-base" fill="#FFFFFF" fill-rule="nonzero">
            <path d="M1.65318504,16.1046201 C1.17922144,16.1046201 0.610465116,16.4649449 0.610465116,9.3343076 C0.610465116,-0.0568933824 1.5963094,0.284466912 1.91860465,0.284466912 L3.6627907,0.284466912 C4.40217391,0.284466912 4.66759353,0.284466912 5.59656218,1.55887868 C7.37866532,4.0128799 7.49241658,5.40107843 7.87158746,5.40107843 C8.15596562,5.40107843 8.26971689,4.0128799 10.2793225,1.55887868 C11.341001,0.265502451 11.6253792,0.284466912 12.3647624,0.284466912 L13.8435288,0.284466912 C14.1658241,0.284466912 15.1516684,-0.0568933824 15.1516684,9.3343076 C15.1516684,16.4649449 14.582912,16.1046201 14.1089484,16.1046201 L11.6822548,16.1046201 C11.4547523,16.1046201 10.9997472,16.1615135 10.9997472,15.8201532 C10.9997472,15.5546507 12.0803842,12.133462 12.0803842,7.16856618 C12.0803842,6.7703125 12.1372599,4.43009804 11.5116279,4.43009804 C10.9618301,4.43009804 10.2414055,6.31137255 10.05182,6.7703125 C8.45930233,10.6694056 9.10389282,12.4558578 7.83367037,12.4558578 C6.24115268,12.4558578 6.86678463,10.6694056 5.17947422,6.7703125 C4.98988878,6.35309436 4.36425683,4.43009804 3.77654196,4.43009804 C3.15091001,4.43009804 3.16986855,6.7703125 3.16986855,7.16856618 C3.16986855,12.1296691 4.36425683,15.5546507 4.36425683,15.8201532 C4.36425683,16.1615135 3.90925177,16.1046201 3.68174924,16.1046201 L1.65318504,16.1046201 Z" id="Path"></path>
            <path d="M25.1996967,16.1046201 C25.0290698,16.1046201 24.479272,16.1615135 24.479272,15.8770466 C24.479272,15.3460417 25.9390799,13.4420098 25.9390799,11.2762684 C25.9390799,10.4190748 25.1238625,10.0966789 24.270728,10.0966789 C22.5455005,10.0966789 19.7965116,10.4001103 19.7965116,12.5696446 C19.7965116,14.0716299 21.028817,15.687402 21.028817,15.9718689 C21.028817,16.0856556 20.9150657,16.1046201 20.6686047,16.1046201 L17.9575329,16.1046201 C16.9906471,16.1046201 16.7252275,14.3940257 16.7252275,11.92106 C16.7252275,3.78530637 22.3559151,0 23.190091,0 C23.815723,0 28.7070273,2.71950368 28.7070273,11.5417708 C28.7070273,16.6166605 27.8918099,16.1046201 27.3230536,16.1046201 L25.1996967,16.1046201 Z M20.2135996,7.66164216 C20.2135996,7.88921569 20.3463094,8.02196691 20.5738119,8.02196691 C20.9150657,8.02196691 22.7540445,7.52889093 24.4223964,7.52889093 C25.0859454,7.52889093 25.3892821,7.43406863 25.3892821,6.90306373 C25.3892821,5.72347426 23.9863498,3.25430147 23.2659252,3.25430147 C22.2421638,3.25050858 20.2135996,6.27344363 20.2135996,7.66164216 Z" id="Shape"></path>
            <path d="M31.3233064,16.1046201 C30.8493428,16.1046201 30.2805865,16.4649449 30.2805865,9.3343076 C30.2805865,-0.0568933824 31.2664307,0.284466912 31.588726,0.284466912 L33.332912,0.284466912 C34.0722952,0.284466912 34.3377149,0.284466912 35.2666835,1.55887868 C37.0487867,4.0128799 37.1625379,5.40107843 37.5417088,5.40107843 C37.826087,5.40107843 37.9398382,4.0128799 39.9494439,1.55887868 C41.0111223,0.265502451 41.2955005,0.284466912 42.0348837,0.284466912 L43.5136502,0.284466912 C43.8359454,0.284466912 44.8217897,-0.0568933824 44.8217897,9.3343076 C44.8217897,16.4649449 44.2530334,16.1046201 43.7790698,16.1046201 L41.3523761,16.1046201 C41.1248736,16.1046201 40.6698686,16.1615135 40.6698686,15.8201532 C40.6698686,15.5546507 41.7505056,12.133462 41.7505056,7.16856618 C41.7505056,6.7703125 41.8073812,4.43009804 41.1817492,4.43009804 C40.6319515,4.43009804 39.9115268,6.31137255 39.7219414,6.7703125 C38.1294237,10.6694056 38.7740142,12.4558578 37.5037917,12.4558578 C35.911274,12.4558578 36.536906,10.6694056 34.8495956,6.7703125 C34.6600101,6.35309436 34.0343782,4.43009804 33.4466633,4.43009804 C32.8210313,4.43009804 32.8399899,6.7703125 32.8399899,7.16856618 C32.8399899,12.1296691 34.0343782,15.5546507 34.0343782,15.8201532 C34.0343782,16.1615135 33.5793731,16.1046201 33.3518706,16.1046201 L31.3233064,16.1046201 Z" id="Path"></path>
            <path d="M47.760364,16.1046201 C47.2864004,16.1046201 46.7176441,16.4649449 46.7176441,9.3343076 C46.7176441,-0.0568933824 47.7034884,0.284466912 48.0257836,0.284466912 L49.7699697,0.284466912 C50.5093529,0.284466912 50.7747725,0.284466912 51.7037412,1.55887868 C53.4858443,4.0128799 53.5995956,5.40107843 53.9787664,5.40107843 C54.2631446,5.40107843 54.3768959,4.0128799 56.3865015,1.55887868 C57.44818,0.265502451 57.7325581,0.284466912 58.4719414,0.284466912 L59.9507078,0.284466912 C60.273003,0.284466912 61.2588473,-0.0568933824 61.2588473,9.3343076 C61.2588473,16.4649449 60.690091,16.1046201 60.2161274,16.1046201 L57.7894338,16.1046201 C57.5619312,16.1046201 57.1069262,16.1615135 57.1069262,15.8201532 C57.1069262,15.5546507 58.1875632,12.133462 58.1875632,7.16856618 C58.1875632,6.7703125 58.2444388,4.43009804 57.6188069,4.43009804 C57.0690091,4.43009804 56.3485844,6.31137255 56.158999,6.7703125 C54.5664813,10.6694056 55.2110718,12.4558578 53.9408493,12.4558578 C52.3483316,12.4558578 52.9739636,10.6694056 51.2866532,6.7703125 C51.0970677,6.35309436 50.4714358,4.43009804 49.8837209,4.43009804 C49.258089,4.43009804 49.2770475,6.7703125 49.2770475,7.16856618 C49.2770475,12.1296691 50.4714358,15.5546507 50.4714358,15.8201532 C50.4714358,16.1615135 50.0164307,16.1046201 49.7889282,16.1046201 L47.760364,16.1046201 Z" id="Path"></path>
            <path d="M71.3030839,16.1046201 C71.132457,16.1046201 70.5826593,16.1615135 70.5826593,15.8770466 C70.5826593,15.3460417 72.0424671,13.4420098 72.0424671,11.2762684 C72.0424671,10.4190748 71.2272497,10.0966789 70.3741153,10.0966789 C68.6488878,10.0966789 65.8998989,10.4001103 65.8998989,12.5696446 C65.8998989,14.0716299 67.1322042,15.687402 67.1322042,15.9718689 C67.1322042,16.0856556 67.018453,16.1046201 66.7719919,16.1046201 L64.0609201,16.1046201 C63.0940344,16.1046201 62.8286148,14.3940257 62.8286148,11.92106 C62.8286148,3.78530637 68.4593023,0 69.2934783,0 C69.9191102,0 74.8104146,2.71950368 74.8104146,11.5417708 C74.8104146,16.6166605 73.9951972,16.1046201 73.4264408,16.1046201 L71.3030839,16.1046201 Z M66.3169869,7.66164216 C66.3169869,7.88921569 66.4496967,8.02196691 66.6771992,8.02196691 C67.018453,8.02196691 68.8574317,7.52889093 70.5257836,7.52889093 C71.1893327,7.52889093 71.4926694,7.43406863 71.4926694,6.90306373 C71.4926694,5.72347426 70.0897371,3.25430147 69.3693124,3.25430147 C68.3455511,3.25050858 66.3169869,6.27344363 66.3169869,7.66164216 Z" id="Shape"></path>
            <path d="M0,25.1620466 C0,21.6801716 1.92618807,18.0958885 5.44110212,18.0958885 C6.71890799,18.0958885 8.69059656,18.642065 8.69059656,20.2350797 C8.69059656,21.0922733 8.1028817,21.5777635 7.17391304,21.5777635 C6.57103134,21.5777635 7.37866532,20.189565 5.51314459,20.189565 C3.1888271,20.189565 2.38119312,22.8294179 2.38119312,24.8813725 C2.38119312,26.4895588 2.83619818,28.1849816 4.76238625,28.1849816 C5.67239636,28.1849816 6.65824065,27.8018995 6.65824065,26.7702328 C6.65824065,25.5754718 5.49797776,25.4730637 5.49797776,25.0899816 C5.49797776,24.8965441 8.02704752,23.9824571 8.20525784,23.9824571 C8.50101112,23.9824571 8.83847321,27.5819118 8.83847321,28.0256801 C8.83847321,29.9562623 6.92745197,30.8134559 5.10364004,30.8134559 C1.69110212,30.8134559 0,28.454277 0,25.1620466 Z" id="Path"></path>
            <path d="M11.0452477,30.5896752 C10.677452,30.5896752 10.2376138,30.8703493 10.2376138,25.3403125 C10.2376138,18.0541667 10.9997472,18.3196691 11.25,18.3196691 L12.838726,18.3196691 C13.0283114,18.3196691 13.3961072,18.2741544 13.3961072,18.5548284 C13.3961072,18.7027512 12.6150152,21.1643382 12.6150152,24.0128002 C12.6150152,27.7905208 13.3506067,30.2217647 13.3506067,30.4303738 C13.3506067,30.5782966 13.2633974,30.5934681 13.1306876,30.5934681 L12.8349343,30.5934681 L11.0452477,30.5934681 L11.0452477,30.5896752 Z" id="Path"></path>
            <path d="M18.6362487,30.8134559 C15.663549,30.8134559 14.5032861,28.6742647 14.5032861,26.1216483 C14.5032861,22.332549 16.6228514,18.0958885 19.3718402,18.0958885 C22.1208291,18.0958885 24.2403943,22.3287561 24.2403943,26.1216483 C24.2403943,28.6742647 23.0801314,30.8134559 20.1074317,30.8134559 L18.6362487,30.8134559 Z M21.8554095,25.7992525 C21.8554095,22.5411581 20.3538928,20.4892034 19.3680485,20.4892034 C18.3822042,20.4892034 16.8806876,22.5411581 16.8806876,25.7992525 C16.8806876,27.5250184 17.8058645,28.1887745 19.3680485,28.1887745 C20.9302326,28.1887745 21.8554095,27.5250184 21.8554095,25.7992525 Z" id="Shape"></path>
            <path d="M32.9764914,18.3196691 C33.3139535,18.3196691 33.8296259,19.4992586 33.8296259,22.1997978 C33.8296259,27.2898591 30.1971689,30.9462071 29.3137007,30.9462071 C29.0179474,30.9462071 24.8584429,28.6173713 24.8584429,21.9039522 C24.8584429,18.3917341 25.3892821,18.3196691 25.65091,18.3196691 L27.3268453,18.3196691 C27.5050556,18.3196691 28.0169363,18.2741544 28.0169363,18.5548284 C28.0169363,18.9379105 27.2358443,19.8216544 27.2358443,22.9356189 C27.2358443,25.5754718 28.9572801,27.7450061 29.309909,27.7450061 C30.0758342,27.7450061 31.679727,25.5754718 31.679727,22.9356189 C31.679727,19.8216544 30.7090495,18.9379105 30.7090495,18.5548284 C30.7090495,18.2741544 31.0920121,18.3196691 31.2664307,18.3196691 L32.9764914,18.3196691 Z" id="Path"></path>
            <path d="M41.1362487,30.5896752 C41.0035389,30.5896752 40.5788675,30.63519 40.5788675,30.4114093 C40.5788675,29.9979841 41.7125885,28.522549 41.7125885,26.8422978 C41.7125885,26.1785417 41.0793731,25.9282108 40.4196158,25.9282108 C39.0811426,25.9282108 36.9502022,26.1633701 36.9502022,27.8474142 C36.9502022,29.0118321 37.9057128,30.2672794 37.9057128,30.4872672 C37.9057128,30.5745037 37.8185035,30.5896752 37.6251264,30.5896752 L35.520728,30.5896752 C34.7699697,30.5896752 34.5652174,29.262163 34.5652174,27.3429596 C34.5652174,21.031587 38.9332659,18.0958885 39.5816481,18.0958885 C40.0669869,18.0958885 43.8624874,20.2047365 43.8624874,27.0509069 C43.8624874,30.9879289 43.229272,30.5896752 42.7894338,30.5896752 L41.1362487,30.5896752 L41.1362487,30.5896752 Z M37.2687058,24.0431434 C37.2687058,24.2214093 37.3710819,24.3238174 37.5492922,24.3238174 C37.8147118,24.3238174 39.2403943,23.9407353 40.533367,23.9407353 C41.0490394,23.9407353 41.2841254,23.8686703 41.2841254,23.4552451 C41.2841254,22.5411581 40.195905,20.6219547 39.6385238,20.6219547 C38.8422649,20.6219547 37.2687058,22.965962 37.2687058,24.0431434 Z" id="Shape"></path>
            <path d="M51.6847826,30.5896752 C50.6686047,30.5896752 51.5824065,29.6755882 49.2884226,25.0141238 C49.0988372,24.6158701 47.8020728,22.1391115 47.3319009,22.1391115 C46.9641052,22.1391115 47.0664813,23.7472978 47.0664813,24.0431434 C47.0664813,28.2039461 47.669363,29.7059314 47.669363,30.4607169 C47.669363,30.6541544 47.3887765,30.5934681 47.2560667,30.5934681 L45.8872599,30.5934681 C45.5194641,30.5934681 45.0796259,30.8741422 45.0796259,25.3441054 C45.0796259,18.0579596 45.8455511,18.323462 46.0958038,18.323462 L47.2560667,18.323462 C47.8134479,18.323462 48.932002,19.5030515 51.6847826,24.6082843 C51.7302831,24.6803493 51.8023256,24.8737868 51.9350354,24.8737868 C52.082912,24.8737868 52.0525784,24.2403738 52.0525784,24.0317647 C52.0525784,21.2743321 51.30182,18.8241238 51.30182,18.4865564 C51.30182,18.2817402 51.6241153,18.323462 51.9047017,18.323462 L53.0232558,18.323462 C53.3455511,18.323462 54.0394338,18.0579596 54.0394338,25.3441054 C54.0394338,30.8741422 53.5995956,30.5934681 53.2317998,30.5934681 L51.6847826,30.5934681 L51.6847826,30.5896752 Z" id="Path"></path>
            <path d="M62.1119818,30.5896752 C61.0958038,30.5896752 62.0096057,29.6755882 59.7156218,25.0141238 C59.5260364,24.6158701 58.229272,22.1391115 57.7591001,22.1391115 C57.3913043,22.1391115 57.4936805,23.7472978 57.4936805,24.0431434 C57.4936805,28.2039461 58.0965622,29.7059314 58.0965622,30.4607169 C58.0965622,30.6541544 57.8159757,30.5934681 57.6832659,30.5934681 L56.314459,30.5934681 C55.9466633,30.5934681 55.5068251,30.8741422 55.5068251,25.3441054 C55.5068251,18.0579596 56.2727503,18.323462 56.523003,18.323462 L57.6832659,18.323462 C58.2406471,18.323462 59.3592012,19.5030515 62.1119818,24.6082843 C62.1574823,24.6803493 62.2295248,24.8737868 62.3622346,24.8737868 C62.5101112,24.8737868 62.4797776,24.2403738 62.4797776,24.0317647 C62.4797776,21.2743321 61.7290192,18.8241238 61.7290192,18.4865564 C61.7290192,18.2817402 62.0513145,18.323462 62.3319009,18.323462 L63.450455,18.323462 C63.7727503,18.323462 64.466633,18.0579596 64.466633,25.3441054 C64.466633,30.8741422 64.0267947,30.5934681 63.658999,30.5934681 L62.1119818,30.5934681 L62.1119818,30.5896752 Z" id="Path"></path>
            <path d="M72.2585945,30.5896752 C72.1258847,30.5896752 71.7012133,30.63519 71.7012133,30.4114093 C71.7012133,29.9979841 72.8349343,28.522549 72.8349343,26.8422978 C72.8349343,26.1785417 72.2017189,25.9282108 71.5419616,25.9282108 C70.2034884,25.9282108 68.072548,26.1633701 68.072548,27.8474142 C68.072548,29.0118321 69.0280586,30.2672794 69.0280586,30.4872672 C69.0280586,30.5745037 68.9408493,30.5896752 68.7474722,30.5896752 L66.6430738,30.5896752 C65.8923155,30.5896752 65.6875632,29.262163 65.6875632,27.3429596 C65.6875632,21.031587 70.0556117,18.0958885 70.7039939,18.0958885 C71.1893327,18.0958885 74.9848332,20.2047365 74.9848332,27.0509069 C74.9848332,30.9879289 74.3516178,30.5896752 73.9117796,30.5896752 L72.2585945,30.5896752 L72.2585945,30.5896752 Z M68.3910516,24.0431434 C68.3910516,24.2214093 68.4934277,24.3238174 68.671638,24.3238174 C68.9370576,24.3238174 70.3627401,23.9407353 71.6557128,23.9407353 C72.1713852,23.9407353 72.4064712,23.8686703 72.4064712,23.4552451 C72.4064712,22.5411581 71.3182508,20.6219547 70.7608696,20.6219547 C69.9646107,20.6219547 68.3910516,22.965962 68.3910516,24.0431434 Z" id="Shape"></path>
        </g>
    </g>
</svg>