<?xml version="1.0" standalone="no"?>
<!DOCTYPE svg PUBLIC "-//W3C//DTD SVG 20010904//EN"
 "http://www.w3.org/TR/2001/REC-SVG-20010904/DTD/svg10.dtd">
<svg version="1.0" xmlns="http://www.w3.org/2000/svg"
 width="507.000000pt" height="507.000000pt" viewBox="0 0 507.000000 507.000000"
 preserveAspectRatio="xMidYMid meet">
<metadata>
Created by potrace 1.11, written by Peter Selinger 2001-2013
</metadata>
<g transform="translate(0.000000,507.000000) scale(0.100000,-0.100000)"
fill="#000000" stroke="none">
<path d="M1610 3972 c-45 -22 -137 -114 -187 -188 -82 -120 -136 -249 -169
-406 -23 -103 -26 -408 -6 -476 22 -74 37 -82 151 -82 55 0 102 4 106 10 3 5
-5 31 -19 57 -107 213 -58 335 147 363 87 13 150 1 167 -30 13 -25 13 -114 -1
-165 -6 -22 -27 -80 -46 -129 -29 -72 -33 -90 -22 -97 8 -5 57 -9 110 -9 113
0 123 6 140 91 17 85 14 398 -6 504 -41 230 -127 415 -240 513 -62 55 -85 63
-125 44z m76 -254 c45 -54 86 -153 88 -211 l1 -52 -90 -11 c-50 -6 -114 -16
-143 -23 -79 -17 -82 -16 -82 24 0 93 128 302 187 304 6 1 24 -14 39 -31z"/>
<path d="M4511 3972 c-49 -23 -182 -171 -229 -254 -53 -94 -105 -238 -128
-354 -22 -110 -25 -374 -6 -449 22 -86 28 -90 143 -93 57 -2 105 0 111 6 6 6
-1 33 -21 75 -97 214 -51 319 153 348 92 12 148 0 173 -37 14 -23 15 -35 5
-101 -7 -41 -30 -119 -51 -172 -49 -119 -47 -121 84 -121 105 0 115 6 136 80
20 71 17 413 -4 525 -42 215 -114 372 -222 481 -38 39 -80 73 -91 76 -12 3
-36 -1 -53 -10z m73 -248 c44 -49 89 -154 90 -214 l1 -55 -90 -11 c-50 -6
-114 -16 -143 -23 -85 -18 -85 -18 -79 35 10 93 136 294 183 294 7 0 24 -12
38 -26z"/>
<path d="M269 3953 c-41 -47 -59 -236 -59 -628 0 -309 10 -443 35 -481 14 -22
22 -24 98 -24 45 0 88 4 95 9 11 6 9 32 -12 137 -36 181 -48 303 -48 483 0
159 9 211 36 211 30 0 98 -176 153 -395 19 -77 42 -148 50 -157 22 -25 79 -24
93 1 5 11 23 82 39 158 30 145 88 321 119 362 51 68 66 26 65 -179 -2 -186
-14 -321 -45 -493 -19 -102 -20 -120 -7 -128 17 -11 189 -12 207 -1 7 5 17 24
23 43 18 58 28 421 18 674 -10 281 -27 395 -62 417 -18 12 -120 9 -156 -3 -45
-16 -121 -120 -184 -251 -29 -59 -55 -107 -58 -108 -3 0 -21 35 -39 78 -40 96
-115 223 -152 259 -26 25 -38 28 -111 31 -70 3 -85 1 -98 -15z"/>
<path d="M2146 3948 c-36 -57 -56 -287 -56 -638 1 -248 12 -416 32 -458 13
-26 17 -27 98 -30 118 -3 118 -3 96 105 -36 171 -47 270 -53 458 -6 196 3 275
31 275 8 0 20 -10 29 -23 27 -42 98 -248 128 -375 36 -151 47 -172 93 -172 18
0 39 6 45 14 6 7 23 69 37 137 44 214 117 410 156 417 27 5 33 -37 32 -228 -1
-186 -13 -321 -45 -489 -17 -85 -18 -106 -7 -112 21 -14 192 -11 211 4 34 24
41 118 41 492 0 444 -18 610 -67 637 -11 5 -50 8 -88 6 -62 -3 -72 -7 -105
-38 -50 -49 -121 -159 -160 -249 -18 -41 -37 -77 -42 -79 -5 -1 -17 19 -27 45
-28 74 -73 161 -121 235 -51 77 -74 88 -175 88 -60 0 -70 -3 -83 -22z"/>
<path d="M3196 3955 c-35 -35 -52 -171 -61 -485 -7 -230 6 -556 25 -605 6 -16
17 -33 23 -37 21 -13 173 -9 185 5 7 8 4 38 -9 97 -36 166 -52 312 -53 495 -1
99 2 192 7 208 10 36 33 34 57 -5 31 -51 95 -241 125 -370 30 -131 51 -168 95
-168 41 0 54 26 80 155 41 208 122 420 157 413 29 -5 35 -67 30 -273 -6 -193
-20 -323 -51 -470 -10 -49 -11 -73 -4 -82 7 -9 42 -13 109 -13 92 0 100 2 114
23 28 44 38 215 32 577 -6 357 -18 474 -52 527 -16 24 -20 25 -95 21 -71 -3
-82 -6 -109 -32 -45 -43 -117 -155 -163 -252 -22 -47 -43 -82 -48 -78 -4 5
-26 52 -49 104 -49 112 -126 230 -161 247 -37 19 -165 17 -184 -2z"/>
<path d="M433 2652 c-71 -25 -118 -64 -164 -135 -132 -203 -129 -526 5 -675
91 -100 274 -119 389 -39 64 44 81 140 56 324 -13 100 -17 113 -35 113 -20 0
-164 -67 -164 -76 0 -4 16 -22 35 -41 29 -28 35 -41 35 -77 0 -52 -24 -81 -81
-96 -75 -21 -145 24 -169 108 -14 53 -12 208 4 270 32 117 95 182 177 182 56
0 65 -7 83 -55 12 -35 17 -40 42 -38 15 1 39 13 52 27 31 30 33 90 6 137 -42
71 -174 105 -271 71z"/>
<path d="M1326 2656 c-59 -22 -122 -91 -167 -182 -61 -126 -82 -217 -83 -369
0 -114 2 -137 23 -189 31 -77 85 -130 152 -150 76 -23 205 -21 272 4 65 25 97
57 134 135 27 57 28 66 27 200 -1 121 -5 152 -28 228 -34 113 -77 197 -129
254 -66 72 -131 94 -201 69z m98 -187 c60 -48 107 -191 109 -334 1 -141 -37
-188 -153 -188 -112 0 -150 47 -150 187 0 106 14 173 51 253 30 63 68 103 99
103 10 0 29 -9 44 -21z"/>
<path d="M2593 2641 c-130 -94 -237 -305 -264 -521 -13 -110 -6 -264 15 -315
l15 -35 92 0 c69 0 90 3 86 13 -45 101 -57 139 -57 181 0 41 5 53 33 81 18 18
51 38 72 44 59 16 137 14 164 -5 22 -16 23 -22 18 -83 -3 -40 -16 -96 -35
-141 -16 -41 -28 -78 -25 -82 2 -5 42 -8 88 -8 104 0 106 3 114 149 17 297
-42 533 -165 670 -39 43 -89 81 -107 81 -2 0 -22 -13 -44 -29z m79 -178 c27
-30 67 -119 74 -162 8 -47 13 -44 -106 -60 -47 -7 -98 -15 -114 -18 -29 -6
-29 -6 -23 36 10 80 99 221 139 221 8 0 22 -8 30 -17z"/>
<path d="M4563 2641 c-130 -94 -235 -299 -264 -517 -14 -107 -7 -266 14 -317
l16 -37 91 0 90 0 -16 38 c-46 104 -55 166 -33 215 28 61 195 102 255 62 25
-16 26 -20 21 -84 -3 -41 -16 -96 -36 -144 -17 -43 -31 -80 -31 -82 0 -3 40
-5 90 -5 82 0 90 2 102 23 21 37 17 414 -5 497 -35 128 -71 207 -131 284 -28
36 -100 96 -116 96 -4 0 -25 -13 -47 -29z m79 -178 c39 -45 84 -167 72 -197
-4 -10 -18 -16 -39 -16 -18 0 -69 -7 -112 -15 -99 -19 -93 -20 -93 16 0 66
101 229 142 229 8 0 22 -8 30 -17z"/>
<path d="M862 2638 c-5 -7 -16 -40 -23 -73 -19 -81 -20 -727 -2 -767 12 -27
14 -28 99 -28 l87 0 -7 33 c-44 215 -52 518 -17 710 11 66 21 123 21 128 0 14
-146 11 -158 -3z"/>
<path d="M1748 2623 c-17 -40 -22 -322 -8 -412 27 -167 87 -296 185 -398 39
-40 76 -73 83 -73 22 0 110 90 151 155 111 175 158 392 132 605 -18 142 -20
144 -115 148 l-78 3 5 -28 c3 -15 12 -48 22 -72 57 -154 37 -383 -47 -513 -51
-81 -84 -73 -137 34 -64 127 -78 317 -35 473 29 104 31 100 -64 103 -82 3 -82
3 -94 -25z"/>
<path d="M3031 2636 c-28 -34 -36 -135 -36 -471 0 -247 3 -348 12 -367 12 -26
16 -28 76 -28 35 0 66 2 69 5 2 3 -1 42 -9 87 -7 46 -16 179 -19 296 -6 177
-5 212 7 212 42 0 168 -279 219 -485 l27 -110 76 -3 76 -3 11 38 c31 105 20
726 -15 809 -14 34 -14 34 -79 34 -37 0 -66 -3 -66 -7 0 -5 9 -57 20 -118 23
-125 38 -335 24 -335 -5 0 -36 53 -67 118 -73 147 -130 245 -174 300 -33 40
-37 42 -87 42 -33 0 -58 -5 -65 -14z"/>
<path d="M3692 2637 c-30 -36 -37 -125 -37 -467 0 -251 3 -353 12 -372 12 -26
16 -28 76 -28 35 0 66 2 69 5 2 3 -1 42 -9 87 -7 46 -16 179 -19 296 -6 177
-5 212 7 212 42 0 168 -279 219 -485 l27 -110 76 -3 76 -3 11 38 c31 105 20
726 -15 808 -14 35 -14 35 -79 35 -37 0 -66 -2 -66 -4 0 -2 9 -57 20 -121 21
-121 38 -345 27 -345 -4 0 -37 60 -73 133 -78 156 -125 237 -171 295 -33 40
-37 42 -87 42 -32 0 -58 -5 -64 -13z"/>
<path d="M1308 1484 c3 -64 0 -89 -10 -95 -8 -6 1 -9 26 -9 34 0 37 2 23 13
-13 10 -16 28 -14 95 2 67 -1 82 -13 82 -12 0 -14 -15 -12 -86z"/>
<path d="M1383 1559 c24 -14 23 -65 -3 -79 -20 -11 -20 -12 7 -48 32 -42 43
-52 61 -52 7 0 4 8 -7 19 -11 11 -28 32 -37 47 -17 25 -17 27 -1 39 22 16 23
71 1 79 -25 10 -41 6 -21 -5z"/>
<path d="M1558 1481 c3 -79 1 -90 -15 -94 -10 -3 17 -5 60 -6 65 -1 77 2 77
15 0 13 -3 14 -14 5 -8 -7 -30 -11 -48 -9 l-33 3 0 88 c0 71 -3 87 -15 87 -12
0 -14 -15 -12 -89z"/>
<path d="M1651 1553 c7 -10 15 -20 16 -22 2 -2 3 5 3 17 0 14 -6 22 -16 22
-14 0 -15 -3 -3 -17z"/>
<path d="M1801 1552 c-15 -29 -3 -54 40 -84 42 -30 51 -60 22 -77 -10 -6 -13
-11 -6 -11 19 0 43 30 43 56 0 17 -11 31 -40 49 -47 29 -58 49 -40 70 8 10 9
15 2 15 -6 0 -16 -8 -21 -18z"/>
<path d="M1875 1560 c3 -5 8 -10 11 -10 2 0 4 5 4 10 0 6 -5 10 -11 10 -5 0
-7 -4 -4 -10z"/>
<path d="M2003 1555 c-9 -24 1 -27 15 -5 8 13 8 20 2 20 -6 0 -13 -7 -17 -15z"/>
<path d="M2078 1491 c3 -62 0 -81 -13 -95 -15 -15 -14 -16 20 -16 34 0 35 1
20 16 -13 14 -16 33 -13 95 2 48 -1 79 -7 79 -6 0 -9 -31 -7 -79z"/>
<path d="M2152 1550 c14 -22 24 -19 15 5 -4 8 -11 15 -17 15 -6 0 -6 -7 2 -20z"/>
<path d="M2330 1561 c0 -5 -3 -18 -6 -28 -4 -13 -3 -15 4 -5 7 11 12 6 21 -19
16 -46 15 -49 -24 -49 -29 0 -36 -4 -41 -25 -3 -14 -16 -32 -27 -40 -20 -14
-19 -15 18 -14 22 1 32 3 23 6 -21 5 -21 4 -8 37 8 21 16 26 44 26 29 0 36 -5
44 -29 8 -22 7 -31 -1 -35 -7 -2 3 -5 22 -5 32 -1 33 0 19 17 -8 9 -28 52 -43
95 -15 42 -32 77 -36 77 -5 0 -9 -4 -9 -9z"/>
<path d="M2541 1489 c6 -91 19 -109 75 -109 36 0 61 20 69 53 9 46 10 137 0
137 -6 0 -9 -26 -7 -65 4 -76 -14 -115 -51 -115 -49 0 -62 22 -62 104 0 61 -3
76 -15 76 -13 0 -14 -13 -9 -81z"/>
<path d="M2828 1484 c3 -64 0 -89 -10 -95 -8 -6 1 -9 26 -9 34 0 37 2 23 13
-13 10 -16 28 -14 95 2 67 -1 82 -13 82 -12 0 -14 -15 -12 -86z"/>
<path d="M2903 1559 c24 -14 23 -65 -3 -79 -20 -11 -20 -12 7 -48 32 -42 43
-52 61 -52 7 0 4 8 -7 19 -11 11 -28 32 -37 47 -17 25 -17 27 -1 39 22 16 23
71 1 79 -25 10 -41 6 -21 -5z"/>
<path d="M3130 1561 c0 -5 -3 -18 -6 -28 -4 -13 -3 -15 4 -5 7 11 12 6 21 -19
16 -46 15 -49 -24 -49 -29 0 -36 -4 -41 -25 -3 -14 -16 -32 -27 -40 -20 -14
-19 -15 18 -14 22 1 32 3 23 6 -21 5 -21 4 -8 37 8 21 16 26 44 26 29 0 36 -5
44 -29 8 -22 7 -31 -1 -35 -7 -2 3 -5 22 -5 32 -1 33 0 19 17 -8 9 -28 52 -43
95 -15 42 -32 77 -36 77 -5 0 -9 -4 -9 -9z"/>
<path d="M3338 1484 c3 -64 0 -89 -10 -95 -8 -6 -1 -9 22 -9 29 1 32 2 18 11
-14 8 -18 24 -18 77 l1 67 27 -30 c15 -17 46 -53 69 -80 l41 -50 4 98 c2 60
-1 97 -7 97 -6 0 -9 -21 -7 -49 7 -102 3 -103 -62 -23 -33 39 -65 72 -70 72
-7 0 -10 -31 -8 -86z"/>
<path d="M3613 1555 c-9 -24 1 -27 15 -5 8 13 8 20 2 20 -6 0 -13 -7 -17 -15z"/>
<path d="M3688 1491 c3 -62 0 -81 -13 -95 -15 -15 -14 -16 20 -16 34 0 35 1
20 16 -13 14 -16 33 -13 95 2 48 -1 79 -7 79 -6 0 -9 -31 -7 -79z"/>
<path d="M3762 1550 c14 -22 24 -19 15 5 -4 8 -11 15 -17 15 -6 0 -6 -7 2 -20z"/>
<path d="M2306 1495 c-9 -26 -7 -32 5 -12 6 10 9 21 6 23 -2 3 -7 -2 -11 -11z"/>
<path d="M3106 1495 c-9 -26 -7 -32 5 -12 6 10 9 21 6 23 -2 3 -7 -2 -11 -11z"/>
<path d="M1635 1480 c3 -5 8 -10 11 -10 2 0 4 5 4 10 0 6 -5 10 -11 10 -5 0
-7 -4 -4 -10z"/>
<path d="M1790 1405 c0 -9 7 -18 15 -22 23 -8 24 0 3 20 -15 14 -18 15 -18 2z"/>
<path d="M1678 1124 c3 -64 0 -89 -10 -95 -8 -6 2 -9 27 -9 32 1 36 3 23 11
-11 6 -18 22 -18 39 0 27 3 30 30 30 34 0 70 30 70 59 0 23 -25 51 -46 51 -10
0 -8 -6 7 -21 32 -32 9 -82 -36 -77 -17 3 -20 11 -20 51 0 35 -4 47 -15 47
-12 0 -14 -15 -12 -86z"/>
<path d="M1918 1124 c3 -64 0 -89 -10 -95 -8 -6 1 -9 26 -9 35 0 38 1 22 13
-16 11 -18 25 -15 95 4 68 2 82 -11 82 -12 0 -14 -15 -12 -86z"/>
<path d="M2080 1188 c0 -12 1 -19 3 -17 1 2 9 12 16 22 12 14 11 17 -3 17 -10
0 -16 -8 -16 -22z"/>
<path d="M2132 1114 l-63 -95 78 3 c69 3 78 5 81 23 2 18 2 18 -8 3 -8 -13
-24 -18 -60 -18 -28 0 -50 3 -50 6 0 3 25 42 55 86 30 44 55 81 55 84 0 2 -6
4 -12 3 -7 0 -41 -43 -76 -95z"/>
<path d="M2330 1188 c0 -12 1 -19 3 -17 1 2 9 12 16 22 12 14 11 17 -3 17 -10
0 -16 -8 -16 -22z"/>
<path d="M2382 1114 l-63 -95 78 3 c69 3 78 5 81 23 2 18 2 18 -8 3 -8 -13
-24 -18 -60 -18 -28 0 -50 3 -50 6 0 3 25 42 55 86 30 44 55 81 55 84 0 2 -6
4 -12 3 -7 0 -41 -43 -76 -95z"/>
<path d="M2598 1121 c3 -79 1 -90 -15 -94 -10 -3 17 -5 60 -6 65 -1 77 2 77
15 0 13 -3 14 -14 5 -8 -7 -30 -11 -48 -9 l-33 3 0 88 c0 71 -3 87 -15 87 -12
0 -14 -15 -12 -89z"/>
<path d="M2691 1193 c7 -10 15 -20 16 -22 2 -2 3 5 3 17 0 14 -6 22 -16 22
-14 0 -15 -3 -3 -17z"/>
<path d="M2848 1124 c3 -64 0 -89 -10 -95 -8 -6 1 -9 26 -9 34 0 37 2 23 13
-13 10 -16 28 -14 95 2 67 -1 82 -13 82 -12 0 -14 -15 -12 -86z"/>
<path d="M2923 1199 c24 -14 23 -65 -3 -79 -20 -11 -20 -12 7 -48 32 -42 43
-52 61 -52 7 0 4 8 -7 19 -11 11 -28 32 -37 47 -17 25 -17 27 -1 39 22 16 23
71 1 79 -25 10 -41 6 -21 -5z"/>
<path d="M3098 1124 c3 -64 0 -89 -10 -95 -8 -6 1 -9 26 -9 35 0 38 1 22 13
-16 11 -18 25 -15 95 4 68 2 82 -11 82 -12 0 -14 -15 -12 -86z"/>
<path d="M3320 1201 c0 -5 -3 -18 -6 -28 -4 -13 -3 -15 4 -5 7 11 12 6 21 -19
16 -46 15 -49 -24 -49 -29 0 -36 -4 -41 -25 -3 -14 -16 -32 -27 -40 -20 -14
-19 -15 18 -14 22 1 32 3 23 6 -21 5 -21 4 -8 37 8 21 16 26 44 26 29 0 36 -5
44 -29 8 -22 7 -31 -1 -35 -7 -2 3 -5 22 -5 32 -1 33 0 19 17 -8 9 -28 52 -43
95 -15 42 -32 77 -36 77 -5 0 -9 -4 -9 -9z"/>
<path d="M3296 1135 c-9 -26 -7 -32 5 -12 6 10 9 21 6 23 -2 3 -7 -2 -11 -11z"/>
<path d="M2675 1120 c3 -5 8 -10 11 -10 2 0 4 5 4 10 0 6 -5 10 -11 10 -5 0
-7 -4 -4 -10z"/>
</g>
</svg>
